<?xml version="1.0" encoding="utf-8"?>
<!-- Generator: Adobe Illustrator 27.9.0, SVG Export Plug-In . SVG Version: 6.00 Build 0)  -->
<svg version="1.1" id="圖層_1" xmlns="http://www.w3.org/2000/svg" xmlns:xlink="http://www.w3.org/1999/xlink" x="0px" y="0px"
	 viewBox="0 0 70 28" style="enable-background:new 0 0 70 28;" xml:space="preserve">
<style type="text/css">
	.st0{fill:#391400;}
	.st1{fill-rule:evenodd;clip-rule:evenodd;fill:#FFE1AD;}
	.st2{fill-rule:evenodd;clip-rule:evenodd;fill:#2F7C37;}
	.st3{fill-rule:evenodd;clip-rule:evenodd;fill:#391400;}
	.st4{fill-rule:evenodd;clip-rule:evenodd;fill:#EAA834;}
	.st5{font-family:'ZenKakuGothicAntique-Black';}
	.st6{font-size:10.7974px;}
	.st7{font-family:'NotoSansCJKtc-Bold-B5pc-H';}
	.st8{font-size:4.9286px;}
</style>
<g>
	<path class="st0" d="M15.6,4.6l1.1,0.6L17,4.8l-0.8-0.4l0.2-0.3l0.8,0.4l0.2-0.4l-0.8-0.4l0.2-0.3l0.8,0.4l0.2-0.4l-1.1-0.6
		L15.6,4.6z M14.6,2.2l-0.4-0.1L13.7,4l1.2,0.3L15,3.9l-0.8-0.2L14.6,2.2z M12,3.3l0-0.5l0.3,0c0.1,0,0.1,0,0.1,0.1
		c0,0,0.1,0.1,0,0.2c0,0.1,0,0.1-0.1,0.2c0,0-0.1,0.1-0.2,0.1L12,3.3z M12.1,2.2l0.3,0c0,0,0.1,0,0.1,0.1c0,0,0,0.1,0,0.1
		c0,0.1,0,0.1-0.1,0.1c0,0-0.1,0-0.1,0l-0.3,0L12.1,2.2z M12.7,2.7c0.1-0.1,0.2-0.2,0.2-0.3c0-0.2,0-0.3-0.1-0.4
		c-0.1-0.1-0.2-0.2-0.4-0.2l-0.7-0.1l-0.2,2l0.7,0.1c0.2,0,0.3,0,0.5-0.2c0.1-0.1,0.2-0.3,0.2-0.4C13,3,12.9,2.8,12.7,2.7z M9.8,3.4
		L9.7,2.9l0.3,0c0.1,0,0.1,0,0.2,0c0,0,0.1,0.1,0.1,0.2c0,0.1,0,0.1,0,0.2c0,0-0.1,0.1-0.1,0.1L9.8,3.4z M9.6,2.3l0.3,0
		c0,0,0.1,0,0.1,0c0,0,0.1,0.1,0.1,0.1c0,0.1,0,0.1,0,0.1c0,0-0.1,0-0.1,0.1l-0.3,0L9.6,2.3z M10.3,2.7c0.1-0.1,0.1-0.2,0.1-0.3
		c0-0.2-0.1-0.3-0.2-0.4C10.1,1.8,10,1.8,9.8,1.8L9.2,1.9l0.3,2l0.7-0.1c0.2,0,0.3-0.1,0.4-0.2c0.1-0.1,0.2-0.3,0.1-0.5
		C10.6,2.9,10.5,2.7,10.3,2.7z M7.9,3.7c0,0.1,0,0.1,0,0.2C7.8,3.9,7.8,4,7.7,4C7.7,4,7.6,4,7.5,4C7.5,4,7.4,3.9,7.4,3.8L6.9,2.6
		L6.5,2.8L7,4c0.1,0.2,0.2,0.3,0.4,0.4c0.2,0.1,0.3,0.1,0.5,0C8.1,4.3,8.2,4.2,8.3,4c0.1-0.2,0.1-0.3,0-0.5L7.8,2.3L7.4,2.4L7.9,3.7
		z M5.5,5.1L5.3,4.7l0.2-0.1c0.1,0,0.1,0,0.2,0c0.1,0,0.1,0.1,0.2,0.1c0,0.1,0.1,0.1,0,0.2c0,0.1,0,0.1-0.1,0.1L5.5,5.1z M4.9,4.2
		L5.1,4c0,0,0.1,0,0.1,0c0,0,0.1,0,0.1,0.1c0,0,0,0.1,0,0.1c0,0,0,0.1-0.1,0.1L5.1,4.4L4.9,4.2z M5.7,4.2c0-0.1,0-0.3,0-0.4
		C5.6,3.7,5.5,3.6,5.3,3.6c-0.2,0-0.3,0-0.4,0.1L4.3,4l1.1,1.7L6,5.3c0.1-0.1,0.2-0.2,0.3-0.4c0-0.2,0-0.3-0.1-0.5
		C6.1,4.3,5.9,4.2,5.7,4.2z"/>
	<path class="st1" d="M11.4,4.4c5.2,0,9.3,4.2,9.3,9.3c0,5.2-4.2,9.3-9.3,9.3s-9.3-4.2-9.3-9.3C2.1,8.6,6.3,4.4,11.4,4.4"/>
	<path class="st2" d="M10.2,7.7c0,0,0.3-0.6,0.9-1.3c0.1-0.2,0.2-0.6,0.3-0.8l-0.2,0.6c0.3-0.3,0.6-0.5,0.9-0.7c0,0-0.4,0.3-0.8,0.8
		c0.2,0,0.6,0,0.8,0c0,0-0.7,0-0.9,0.1C11.1,6.6,11,6.8,10.8,7l0.9,0l-1,0.1C10.5,7.3,10.3,7.5,10.2,7.7 M9.9,8
		c0-0.1-0.7-2.6,2.8-3.2C12.7,4.9,13.2,8,9.9,8z"/>
	<path class="st3" d="M7,15.5c1.2-1,2.5-1.9,4-2.4c1.5-0.6,3-0.8,4.6-0.8c0.2,0,0.4-0.2,0.4-0.4c0-0.2-0.2-0.4-0.4-0.4
		c-1.7,0-3.3,0.2-4.9,0.8c-1.5,0.6-2.9,1.5-4.2,2.5c-0.2,0.1-0.2,0.4,0,0.5C6.6,15.6,6.8,15.6,7,15.5 M15.2,13.2
		c-1.3,0-2.7,0.2-3.9,0.7C10.1,14.4,9,15,8,15.8l3,5.3c0.6-0.6,1.8-1.2,2.5-1.4c0.6-0.2,1.2-0.4,1.9-0.5c0.3,0,0.7-0.1,1-0.1
		L15.2,13.2z M13.9,10.7c-0.9-1.4-2.7-2-4.3-1.4c-0.9,0.3-1.6,1-2,1.9c-0.3,0.6-0.4,1.3-0.3,1.9c0.9-0.6,1.9-1.2,3-1.6
		C11.5,11.1,12.7,10.8,13.9,10.7z M11.4,21.7c0.2,0,0.6-0.1,0.7-0.1c0.5-0.1,1-0.3,1.4-0.5c0.5-0.2,0.9-0.4,1.4-0.7
		c0.1-0.1,0.4-0.3,0.5-0.4c-0.2,0-0.6,0.1-0.7,0.1c-0.3,0.1-0.6,0.2-0.9,0.3c-0.6,0.2-1.2,0.5-1.7,0.8
		C11.9,21.3,11.5,21.6,11.4,21.7z M14.9,10.7c0.2,0,0.4,0,0.6,0c0.7,0,1.3,0.6,1.2,1.3c0,0.5-0.3,0.9-0.7,1.1l1.3,6.6
		c0.1,0.5-0.5,1-0.8,1.3c-0.6,0.5-1.4,0.8-2.1,1.1c-0.7,0.3-1.6,0.5-2.4,0.5c-0.5,0-1.2,0-1.5-0.4l-3.3-5.9
		c-0.5,0.3-1.1,0.1-1.5-0.3c-0.5-0.5-0.4-1.3,0.1-1.8c0.2-0.2,0.4-0.4,0.7-0.5c-0.5-2.2,0.7-4.4,2.8-5.2c1.1-0.4,2.4-0.4,3.4,0.1
		C13.7,9.1,14.5,9.8,14.9,10.7z"/>
	<path class="st3" d="M8.5,5.3l0.7-0.1l2.1,10.8c-0.2,0.1-0.4,0.2-0.6,0.3L8.5,5.3z"/>
	<path class="st4" d="M8.6,16.8l2.4,4.2c0.6-0.6,1.8-1.2,2.5-1.5c0.6-0.2,1.2-0.4,1.9-0.5c0.1,0,0.3,0,0.4,0l-0.9-5.4
		c-0.4,0.1-0.8,0.2-1.1,0.5c-0.3,0.3-0.6,0.6-0.8,0.9c-0.4,0.4-0.7,0.7-1.2,1c-0.7,0.5-1.6,0.8-2.5,0.8C9,16.9,8.8,16.9,8.6,16.8"/>
	<path class="st3" d="M11.1,19.1c0.2,0,0.3,0.2,0.3,0.3c0,0.2-0.2,0.3-0.3,0.3s-0.3-0.2-0.3-0.3C10.7,19.2,10.9,19.1,11.1,19.1"/>
	<path class="st3" d="M11.6,17.4c0.2,0,0.3,0.2,0.3,0.3c0,0.2-0.2,0.3-0.3,0.3c-0.2,0-0.3-0.2-0.3-0.3
		C11.3,17.5,11.4,17.4,11.6,17.4"/>
	<path class="st3" d="M12.9,18.4c0.2,0,0.3,0.2,0.3,0.3c0,0.2-0.2,0.3-0.3,0.3c-0.2,0-0.3-0.2-0.3-0.3
		C12.5,18.5,12.7,18.4,12.9,18.4"/>
	<path class="st3" d="M13.6,16.5c0.2,0,0.3,0.2,0.3,0.3s-0.2,0.3-0.3,0.3c-0.2,0-0.3-0.2-0.3-0.3S13.4,16.5,13.6,16.5"/>
	<path class="st3" d="M10.2,17.6c0.1,0,0.2,0.1,0.2,0.2c0,0.1-0.1,0.2-0.2,0.2c-0.1,0-0.2-0.1-0.2-0.2C10,17.7,10.1,17.6,10.2,17.6"
		/>
	<path class="st3" d="M14.9,16.7c0.1,0,0.2,0.1,0.2,0.2c0,0.1-0.1,0.2-0.2,0.2c-0.1,0-0.2-0.1-0.2-0.2
		C14.7,16.8,14.7,16.7,14.9,16.7"/>
	<path class="st3" d="M11.9,18.5c0.1,0,0.2,0.1,0.2,0.2c0,0.1-0.1,0.2-0.2,0.2c-0.1,0-0.2-0.1-0.2-0.2
		C11.7,18.6,11.8,18.5,11.9,18.5"/>
	<path class="st3" d="M14.8,17.4c-0.2,0-0.3,0.2-0.3,0.3c0,0.2,0.2,0.3,0.3,0.3c0.2,0,0.3-0.2,0.3-0.3C15.1,17.5,15,17.4,14.8,17.4"
		/>
	<path class="st3" d="M13.1,17.5c-0.1,0-0.2,0.1-0.2,0.2c0,0.1,0.1,0.2,0.2,0.2c0.1,0,0.2-0.1,0.2-0.2
		C13.3,17.6,13.3,17.5,13.1,17.5"/>
	<path class="st3" d="M14.2,18.3c-0.1,0-0.2,0.1-0.2,0.2c0,0.1,0.1,0.2,0.2,0.2c0.1,0,0.2-0.1,0.2-0.2
		C14.4,18.3,14.3,18.3,14.2,18.3"/>
	<path class="st4" d="M13.8,20.4c-0.6,0.2-1.2,0.5-1.7,0.8c-0.1,0.1-0.5,0.3-0.6,0.5c0.2,0,0.6-0.1,0.7-0.1c0.5-0.1,1-0.3,1.4-0.5
		c0.5-0.2,0.9-0.4,1.4-0.7c0.1-0.1,0.4-0.3,0.5-0.4c-0.2,0-0.6,0.1-0.7,0.1C14.4,20.2,14.1,20.3,13.8,20.4"/>
	<path class="st0" d="M15.8,22.8l0.3,2.7l0.5-0.2l-0.1-0.5l0.7-0.3l0.3,0.4l0.5-0.2l-1.9-1.9L15.8,22.8z M16.4,24.3l-0.1-0.7
		l0.5,0.5L16.4,24.3z M13.2,25.7L13.1,25l0.3-0.1c0.1,0,0.1,0,0.2,0c0.1,0,0.1,0.1,0.1,0.2c0,0.1,0,0.2,0,0.2c0,0.1-0.1,0.1-0.2,0.1
		L13.2,25.7z M13,24.2l0.3-0.1c0,0,0.1,0,0.1,0c0,0,0.1,0.1,0.1,0.1c0,0.1,0,0.1,0,0.2c0,0-0.1,0.1-0.1,0.1L13,24.6L13,24.2z
		 M13.9,24.7c0.1-0.1,0.2-0.3,0.1-0.4c0-0.2-0.1-0.3-0.3-0.5c-0.2-0.1-0.3-0.2-0.5-0.1l-0.9,0.2l0.5,2.5l0.9-0.2
		c0.2,0,0.4-0.2,0.5-0.3c0.1-0.2,0.2-0.4,0.1-0.6C14.3,24.9,14.1,24.7,13.9,24.7z M9.6,25.7c-0.2,0-0.4-0.1-0.5-0.3
		C9,25.2,9,25.1,9,24.9c0-0.2,0.1-0.4,0.3-0.5c0.2-0.1,0.3-0.2,0.5-0.2c0.2,0,0.4,0.1,0.5,0.3c0.1,0.2,0.2,0.3,0.1,0.5
		c0,0.2-0.1,0.4-0.3,0.5C10,25.7,9.8,25.7,9.6,25.7z M9.9,23.7c-0.4,0-0.7,0-0.9,0.3c-0.3,0.2-0.4,0.5-0.5,0.9c0,0.4,0,0.7,0.3,0.9
		c0.2,0.3,0.5,0.4,0.9,0.5c0.3,0,0.7-0.1,0.9-0.3c0.3-0.2,0.4-0.5,0.5-0.9c0-0.4,0-0.7-0.3-1C10.5,23.9,10.2,23.7,9.9,23.7z
		 M5.8,24.4l0.3-0.6L6.4,24c0.1,0,0.1,0.1,0.1,0.2c0,0.1,0,0.2,0,0.2c0,0.1-0.1,0.1-0.2,0.2c-0.1,0-0.1,0-0.2,0L5.8,24.4z M6.5,23.1
		l0.3,0.2c0,0,0.1,0.1,0.1,0.1c0,0,0,0.1,0,0.2c0,0.1-0.1,0.1-0.1,0.1c0,0-0.1,0-0.1,0l-0.3-0.2L6.5,23.1z M7,24
		c0.2,0,0.3-0.1,0.4-0.3c0.1-0.2,0.1-0.4,0-0.5C7.3,23,7.2,22.9,7,22.8l-0.8-0.4l-1.2,2.3l0.8,0.4c0.2,0.1,0.4,0.1,0.6,0.1
		c0.2-0.1,0.4-0.2,0.5-0.4C7.1,24.5,7.1,24.3,7,24z"/>
	<path class="st3" d="M5.3,23.3c-0.7-0.4-1.3-0.9-1.9-1.5c-2.1-2.1-3.3-4.9-3.3-8c0-3.1,1.3-6,3.3-8C3.7,5.4,4,5.1,4.3,4.9l0.3,0.5
		C4.4,5.6,4.1,5.9,3.8,6.2c-1.9,1.9-3.1,4.6-3.1,7.6c0,3,1.2,5.6,3.1,7.6c0.5,0.5,1.1,1,1.7,1.4L5.3,23.3z M17.7,4.3
		c0.6,0.4,1.2,0.9,1.7,1.4c2.1,2.1,3.3,4.9,3.3,8c0,3.1-1.3,6-3.3,8c-0.6,0.6-1.2,1.1-1.9,1.5l-0.5-0.4c0.7-0.4,1.4-1,1.9-1.5
		c1.9-1.9,3.1-4.6,3.1-7.6c0-3-1.2-5.6-3.1-7.6c-0.5-0.5-1-0.9-1.6-1.3L17.7,4.3z"/>
</g>
<text transform="matrix(1 0 0 1 24.3271 14.0273)" class="st5 st6">TKUEATS</text>
<text transform="matrix(1 0 0 1 24.5972 20.9893)" class="st7 st8">飲料點餐系統</text>
</svg>
